# AST/ASF file generated using VICON BodyLanguage
# -----------------------------------------------
:version 1.10
:name VICON
:units
  mass 1.0
  length 0.45
  angle deg
:documentation
   .ast/.asf automatically generated from VICON data using
   VICON BodyBuilder and BodyLanguage model FoxedUp or BRILLIANT.MOD
:root
   order TX TY TZ RX RY RZ
   axis XYZ
   position 0 0 0  
   orientation 0 0 0 
:bonedata
  begin
     id 1 
     name lhipjoint
     direction 0.560651 -0.75055 0.34978 
     length 2.44936 
     axis 0 0 0  XYZ
  end
  begin
     id 2 
     name lfemur
     direction 0.34202 -0.939693 0  
     length 7.42139  
     axis 0 0 20  XYZ
    dof rx ry rz
    limits (-160.0 20.0)
           (-70.0 70.0)
           (-60.0 70.0)
  end
  begin
     id 3 
     name ltibia
     direction 0.34202 -0.939693 0   
     length 7.75674   
     axis 0 0 20   XYZ
    dof rx
    limits (-10.0 170.0)
  end
  begin
     id 4 
     name lfoot
     direction 0.0925879 -0.254383 0.962661   
     length 2.38688   
     axis -90 7.62852e-016 20   XYZ
    dof rx rz
    limits (-45.0 90.0)
           (-70.0 20.0)
  end
  begin
     id 5 
     name ltoes
     direction 1.53567e-011 -4.21973e-011 1   
     length 1.19228   
     axis -90 7.62852e-016 20   XYZ
    dof rx
    limits (-90.0 20.0)
  end
  begin
     id 6 
     name rhipjoint
     direction -0.540087 -0.762838 0.355506   
     length 2.4099  
     axis 0 0 0  XYZ 
  end
  begin
     id 7 
     name rfemur
     direction -0.34202 -0.939693 0   
     length 7.70794   
     axis 0 0 -20   XYZ
    dof rx ry rz
    limits (-160.0 20.0)
           (-70.0 70.0)
           (-70.0 60.0)
  end
  begin
     id 8 
     name rtibia
     direction -0.34202 -0.939693 0   
     length 7.66106   
     axis 0 0 -20   XYZ
    dof rx
    limits (-10.0 170.0)
 end
 begin
     id 9 
     name rfoot
     direction -0.0830975 -0.228308 0.970036   
     length 2.4989  
     axis -90 -7.62852e-016 -20   XYZ
    dof rx rz
    limits (-45.0 90.0)
           (-20.0 70.0)
  end
  begin
     id 10 
     name rtoes
     direction -1.53517e-011 -4.21842e-011 1   
     length 1.2498   
     axis -90 -7.62852e-016 -20   XYZ
    dof rx
    limits (-90.0 20.0)
  end
  begin
     id 11 
     name lowerback
     direction 0.0266356 0.99402 -0.105896   
     length 2.1545   
     axis 0 0 0   XYZ
    dof rx ry rz
    limits (-20.0 45.0)
           (-30.0 30.0)
           (-30.0 30.0)
  end
  begin
     id 12 
     name upperback
     direction 0.0130547 0.999192 0.0380027   
     length 2.1434   
     axis 0 0 0   XYZ
    dof rx ry rz
    limits (-20.0 45.0)
           (-30.0 30.0)
           (-30.0 30.0)
  end
  begin
     id 13 
     name thorax
     direction 0.000590299 0.996288 0.0860764   
     length 2.19049   
     axis 0 0 0   XYZ
    dof rx ry rz
    limits (-20.0 45.0)
           (-30.0 30.0)
           (-30.0 30.0)
  end
  begin
     id 14 
     name lowerneck
     direction -0.0432125 0.978219 0.203028   
     length 1.62441   
     axis 0 0 0   XYZ
    dof rx ry rz
    limits (-20.0 45.0)
           (-30.0 30.0)
           (-30.0 30.0)
  end
  begin
     id 15 
     name upperneck
     direction -0.0192309 0.991699 -0.127138   
     length 1.66666   
     axis 0 0 0   XYZ
    dof rx ry rz
    limits (-20.0 45.0)
           (-30.0 30.0)
           (-30.0 30.0)
  end
  begin
     id 16
     name head
     direction -0.00434499 0.997882 -0.0649107  
     length 1.67142  
     axis 0 0 0   XYZ
    dof rx ry rz
    limits (-20.0 45.0)
           (-30.0 30.0)
           (-30.0 30.0)
  end
  begin
     id 17 
     name lclavicle
     direction 0.970351 0.240904 -0.0196058  
     length 4.04862  
     axis 0 0 0   XYZ
    dof ry rz
    limits (-20.0 10.0)
           (0.0 20.0)
  end
  begin
     id 18 
     name lhumerus
     direction 1 -4.4896e-011 -1.40911e-018   
     length 5.58345   
     axis 180 -30 -90   XYZ
    dof rx ry rz
    limits (-60.0 90.0)
           (-90.0 90.0)
           (-90.0 90.0)
  end
  begin
     id 19
     name lradius
     direction 1 -4.48968e-011 5.88912e-028   
     length 3.71087   
     axis 180 -30 -90   XYZ
    dof rx
    limits (-10.0 170.0)
  end
  begin
     id 20
     name lwrist
     direction 1 -4.48955e-011 -8.83775e-028   
     length 1.85544   
     axis 5.52448e-016 90 90   XYZ
    dof ry
    limits (-180.0 0.0)
 end
  begin
     id 21 
     name lhand
     direction 1 -4.49035e-011 -1.76755e-027   
     length 0.562322   
     axis 1.12785e-015 90 90   XYZ
    dof rx rz
    limits (-90.0 90.0)
           (-45.0 45.0)
  end
  begin
     id 22 
     name lfingers
     direction 1 -4.48824e-011 -3.5351e-027   
     length 0.453359   
     axis 2.2557e-015 90 90   XYZ
    dof rx
    limits (0.0 90.0)
  end
  begin
     id 23
     name lthumb
     direction 0.707107 -6.34888e-011 0.707107   
     length 0.650935   
     axis -90 45 2.85299e-015   XYZ
    dof rx rz
    limits (-45.0 45.0)
           (-45.0 45.0)
  end
  begin
     id 24 
     name rclavicle
     direction -0.96165 0.268562 -0.0557131   
     length 4.05446  
     axis 0 0 0   XYZ 
    dof ry rz
    limits (-10.0 20.0)
           (-20.0 0.0)
  end
  begin
     id 25 
     name rhumerus
     direction -1 -4.48957e-011 -3.36329e-027  
     length 5.20357   
     axis 180 30 90   XYZ
    dof rx ry rz
    limits (-90.0 60.0)
           (-90.0 90.0)
           (-90.0 90.0)
  end
  begin
     id 26 
     name rradius
     direction -1 -4.48974e-011 4.51441e-027   
     length 3.64937   
     axis 180 30 90   XYZ
    dof rx
    limits (-10.0 170.0)
  end
  begin
     id 27 
     name rwrist
     direction -1 -4.4896e-011 -8.83775e-028   
     length 1.82468   
     axis 5.52448e-016 -90 -90   XYZ
    dof ry
    limits (-180.0 0.0)
  end
  begin
     id 28
     name rhand
     direction -1 -4.48996e-011 -1.76755e-027   
     length 0.617996   
     axis 1.12785e-015 -90 -90   XYZ
    dof rx rz
    limits (-90.0 90.0)
           (-45.0 45.0)
  end
  begin
     id 29
     name rfingers
     direction -1 -4.48957e-011 -3.5351e-027   
     length 0.498244   
     axis 2.2557e-015 -90 -90   XYZ
    dof rx
    limits (0.0 90.0)
  end
  begin
     id 30
     name rthumb
     direction -0.707107 -6.34931e-011 0.707107   
     length 0.715382   
     axis -90 -45 -2.85299e-015   XYZ
    dof rx rz
    limits (-45.0 45.0)
           (-45.0 45.0)
  end
:hierarchy
  begin
    root lhipjoint rhipjoint lowerback
    lhipjoint lfemur
    lfemur ltibia
    ltibia lfoot
    lfoot ltoes
    rhipjoint rfemur
    rfemur rtibia
    rtibia rfoot
    rfoot rtoes
    lowerback upperback
    upperback thorax
    thorax lowerneck lclavicle rclavicle
    lowerneck upperneck
    upperneck head
    lclavicle lhumerus
    lhumerus lradius
    lradius lwrist
    lwrist lhand lthumb
    lhand lfingers
    rclavicle rhumerus
    rhumerus rradius
    rradius rwrist
    rwrist rhand rthumb
    rhand rfingers
  end

#!OML:ASF H:\ManfredETheater\Project 1\Capture day 2\Session 1\Male1.ASF
:FULLY-SPECIFIED
:DEGREES
293
root 3.35989 16.1452 1.79042 -8.59769 -1.46297 -3.59463
lowerback 8.23111 0.143589 2.41313
upperback 0.547557 0.546543 3.1079
thorax -4.05981 0.253891 1.80481
lowerneck -26.3962 -0.683617 -1.24479
upperneck 22.1614 0.415785 -3.08036
head 11.6166 -0.349956 -0.874571
rclavicle 2.38542e-015 7.15625e-015
rhumerus 34.6947 -1.10105 -51.3207
rradius 55.4501
rwrist 20.3901
rhand 10.8011 -18.5343
rfingers 7.12502
rthumb 35.8857 -44.8788
lclavicle 2.38542e-015 7.15625e-015
lhumerus 26.4291 3.53882 64.3961
lradius 71.0659
lwrist -19.5043
lhand 17.9374 13.9747
lfingers 7.12502
lthumb 42.609 38.3574
rfemur -12.2018 -11.4013 14.4815
rtibia 61.703
rfoot -32.4972 -3.98007
rtoes -12.2151
lfemur -12.592 8.31223 -5.92859
ltibia 60.4862
lfoot -32.3339 -4.81999
ltoes -12.7995
294
root 3.35932 16.145 1.79005 -8.5806 -1.47973 -3.58114
lowerback 8.21501 0.157445 2.39693
upperback 0.540824 0.563193 3.11148
thorax -4.05823 0.262473 1.81574
lowerneck -26.3881 -0.693924 -1.24297
upperneck 22.166 0.405046 -3.09634
head 11.6168 -0.356826 -0.882707
rclavicle -6.65929e-015 -1.82882e-014
rhumerus 34.6865 -1.11886 -51.3016
rradius 55.4819
rwrist 20.323
rhand 10.7383 -18.6024
rfingers 7.12502
rthumb 35.8263 -44.9614
lclavicle -6.65929e-015 -1.82882e-014
lhumerus 26.4349 3.52872 64.4161
lradius 71.0654
lwrist -19.476
lhand 17.9352 13.9785
lfingers 7.12502
lthumb 42.607 38.3618
rfemur -12.2375 -11.3979 14.4748
rtibia 61.7169
rfoot -32.4947 -3.97365
rtoes -12.2076
lfemur -12.6134 8.33101 -5.94233
ltibia 60.4921
lfoot -32.3323 -4.82689
ltoes -12.7361
295
root 3.35952 16.1445 1.79009 -8.56897 -1.46607 -3.58688
lowerback 8.20767 0.157136 2.4136
upperback 0.524088 0.564654 3.11054
thorax -4.07139 0.26281 1.8053
lowerneck -26.3335 -0.698416 -1.22045
upperneck 22.1457 0.395926 -3.1259
head 11.599 -0.362319 -0.898396
rclavicle 5.06901e-015 2.78299e-014
rhumerus 34.6688 -1.14164 -51.3147
rradius 55.4863
rwrist 20.3291
rhand 10.7282 -18.5784
rfingers 7.12502
rthumb 35.8167 -44.9397
lclavicle 5.06901e-015 2.78299e-014
lhumerus 26.4432 3.51213 64.4353
lradius 71.0604
lwrist -19.4495
lhand 17.9354 13.9843
lfingers 7.12502
lthumb 42.6071 38.3677
rfemur -12.2497 -11.4314 14.4762
rtibia 61.7264
rfoot -32.4984 -3.99091
rtoes -12.3179
lfemur -12.6345 8.31571 -5.94046
ltibia 60.5011
lfoot -32.345 -4.84584
ltoes -12.7136
296
root 3.35941 16.1436 1.78939 -8.55378 -1.46895 -3.56623
lowerback 8.21072 0.162364 2.40087
upperback 0.503353 0.571276 3.10652
thorax -4.09486 0.266156 1.80761
lowerneck -26.2956 -0.70624 -1.21755
upperneck 22.1394 0.387661 -3.14393
head 11.5897 -0.367892 -0.906683
rclavicle 2.18663e-015 -9.54166e-015
rhumerus 34.642 -1.16178 -51.3338
rradius 55.5182
rwrist 20.3431
rhand 10.7396 -18.5792
rfingers 7.12502
rthumb 35.8275 -44.9379
lclavicle 2.18663e-015 -9.54166e-015
lhumerus 26.4479 3.50351 64.4633
lradius 71.055
lwrist -19.4227
lhand 17.9577 14.0143
lfingers 7.12502
lthumb 42.628 38.3904
rfemur -12.2807 -11.4344 14.4547
rtibia 61.7424
rfoot -32.4946 -3.96553
rtoes -12.2397
lfemur -12.6578 8.32386 -5.96752
ltibia 60.5084
lfoot -32.3465 -4.82831
ltoes -12.6952
297
root 3.35982 16.1432 1.7893 -8.54407 -1.46795 -3.57005
lowerback 8.20298 0.158074 2.4145
upperback 0.489673 0.566991 3.10542
thorax -4.10456 0.263707 1.79936
lowerneck -26.2282 -0.70234 -1.20925
upperneck 22.1044 0.387314 -3.1455
head 11.5638 -0.366546 -0.907769
rclavicle -1.04859e-014 -2.38542e-015
rhumerus 34.6263 -1.18146 -51.3778
rradius 55.5405
rwrist 20.3523
rhand 10.7114 -18.6072
rfingers 7.12502
rthumb 35.8007 -44.9724
lclavicle -1.04859e-014 -2.38542e-015
lhumerus 26.4305 3.49572 64.4517
lradius 71.0626
lwrist -19.4211
lhand 17.9626 14.0333
lfingers 7.12502
lthumb 42.6326 38.4078
rfemur -12.2978 -11.4556 14.4518
rtibia 61.7552
rfoot -32.5072 -3.94362
rtoes -12.2244
lfemur -12.6679 8.3244 -5.96835
ltibia 60.5145
lfoot -32.3612 -4.80494
ltoes -12.7428
298
root 3.36001 16.1426 1.78874 -8.53449 -1.46574 -3.54075
lowerback 8.19697 0.164402 2.39867
upperback 0.47916 0.573678 3.09511
thorax -4.11226 0.267177 1.79679
lowerneck -26.1799 -0.712434 -1.20089
upperneck 22.074 0.372395 -3.16273
head 11.5432 -0.374107 -0.917424
rclavicle -1.98785e-016 1.90833e-014
rhumerus 34.5925 -1.20847 -51.3798
rradius 55.5747
rwrist 20.3451
rhand 10.6784 -18.6151
rfingers 7.12502
rthumb 35.7695 -44.9879
lclavicle -1.98785e-016 1.90833e-014
lhumerus 26.4414 3.49512 64.486
lradius 71.0645
lwrist -19.4823
lhand 17.9786 14.0016
lfingers 7.12502
lthumb 42.6476 38.3709
rfemur -12.3144 -11.4774 14.4136
rtibia 61.7695
rfoot -32.5198 -3.92879
rtoes -12.2239
lfemur -12.6826 8.3241 -6.00811
ltibia 60.5184
lfoot -32.3637 -4.7764
ltoes -12.7942
299
root 3.35995 16.1418 1.78867 -8.53202 -1.46739 -3.50945
lowerback 8.20137 0.167363 2.36847
upperback 0.453562 0.575923 3.09122
thorax -4.14165 0.268654 1.8096
lowerneck -26.0688 -0.71282 -1.19543
upperneck 22.0251 0.371542 -3.18548
head 11.5042 -0.375629 -0.925524
rclavicle -7.95139e-016 2.14687e-014
rhumerus 34.5479 -1.21445 -51.4074
rradius 55.6138
rwrist 20.3879
rhand 10.6878 -18.6135
rfingers 7.12502
rthumb 35.7784 -44.9842
lclavicle -7.95139e-016 2.14687e-014
lhumerus 26.4158 3.49281 64.52
lradius 71.0655
lwrist -19.542
lhand 17.9339 14.0283
lfingers 7.12502
lthumb 42.6058 38.4121
rfemur -12.3262 -11.4884 14.3741
rtibia 61.7836
rfoot -32.5318 -3.93409
rtoes -12.2873
lfemur -12.6851 8.32492 -6.04364
ltibia 60.5212
lfoot -32.3656 -4.79714
ltoes -12.7128
300
root 3.35989 16.1409 1.78813 -8.52418 -1.47141 -3.50164
lowerback 8.20884 0.167991 2.36983
upperback 0.437124 0.577815 3.0892
thorax -4.16295 0.269429 1.8066
lowerneck -25.9989 -0.715967 -1.19992
upperneck 21.978 0.364523 -3.18189
head 11.4732 -0.377522 -0.923563
rclavicle -4.91992e-015 1.19271e-014
rhumerus 34.5187 -1.23037 -51.4397
rradius 55.6366
rwrist 20.421
rhand 10.6731 -18.5868
rfingers 7.12502
rthumb 35.7645 -44.9608
lclavicle -4.91992e-015 1.19271e-014
lhumerus 26.3993 3.50362 64.5362
lradius 71.0771
lwrist -19.5758
lhand 17.905 14.0277
lfingers 7.12502
lthumb 42.5787 38.4209
rfemur -12.3376 -11.5034 14.3618
rtibia 61.7933
rfoot -32.5415 -3.92199
rtoes -12.2956
lfemur -12.6942 8.33494 -6.05035
ltibia 60.5269
lfoot -32.3725 -4.81028
ltoes -12.6973
301
root 3.35951 16.1407 1.78847 -8.5184 -1.48352 -3.51372
lowerback 8.19463 0.176983 2.3853
upperback 0.428239 0.591168 3.0942
thorax -4.16434 0.275788 1.80158
lowerneck -25.8862 -0.722904 -1.17854
upperneck 21.8753 0.351361 -3.22245
head 11.4135 -0.384868 -0.942332
rclavicle 8.44835e-016 -7.95139e-015
rhumerus 34.4834 -1.257 -51.4457
rradius 55.6617
rwrist 20.4318
rhand 10.6381 -18.5504
rfingers 7.12502
rthumb 35.7313 -44.9325
lclavicle 8.44835e-016 -7.95139e-015
lhumerus 26.4015 3.50149 64.5688
lradius 71.0714
lwrist -19.6033
lhand 17.9216 13.9806
lfingers 7.12502
lthumb 42.5942 38.3684
rfemur -12.3477 -11.5019 14.3791
rtibia 61.8022
rfoot -32.5538 -3.90849
rtoes -12.2285
lfemur -12.6975 8.34869 -6.03036
ltibia 60.5326
lfoot -32.3856 -4.8083
ltoes -12.7539
